<svg xmlns="http://www.w3.org/2000/svg" version="1.0" preserveAspectRatio="xMidYMid meet" viewBox="33.9 33.5 1186.1 1200.43">

<g transform="translate(0.000000,1254.000000) scale(0.100000,-0.100000)" fill="#6f9228" stroke="none">
<path d="M4134 12165 c3 -22 13 -78 21 -125 38 -209 41 -486 10 -715 -65 -471 -282 -965 -627 -1425 -235 -314 -564 -662 -1048 -1109 -712 -658 -1067 -1086 -1339 -1612 -216 -418 -323 -848 -351 -1414 -6 -128 -18 -246 -29 -303 -43 -205 -151 -357 -344 -486 l-88 -59 61 -40 c138 -90 252 -220 325 -372 60 -125 80 -205 114 -470 62 -469 135 -794 253 -1119 196 -540 484 -1006 863 -1395 766 -787 1726 -1167 3245 -1285 666 -52 1634 -46 2315 14 974 86 1773 321 2360 694 618 392 1088 921 1410 1590 216 447 334 875 415 1506 34 265 57 355 125 490 64 128 184 261 313 347 l62 42 -87 56 c-194 127 -307 289 -349 498 -7 40 -18 169 -24 287 -13 268 -32 444 -70 630 -101 497 -307 932 -660 1400 -207 273 -452 530 -940 988 -632 592 -933 918 -1169 1267 -342 505 -517 984 -546 1495 -8 141 9 397 36 537 11 58 19 109 17 115 -4 11 -90 -104 -140 -187 -136 -228 -228 -494 -275 -795 -25 -162 -25 -611 0 -790 69 -483 249 -996 510 -1450 122 -213 329 -512 476 -690 202 -244 454 -526 700 -784 143 -150 249 -268 327 -366 454 -567 681 -1049 799 -1695 20 -104 44 -220 56 -257 44 -145 157 -258 299 -299 55 -15 73 -29 39 -29 -13 0 -58 -16 -98 -35 -179 -86 -278 -267 -326 -595 -46 -309 -81 -477 -144 -697 -210 -725 -550 -1300 -1067 -1803 -492 -479 -1079 -807 -1795 -1005 -915 -253 -2059 -257 -2964 -10 -730 199 -1332 533 -1826 1012 -669 650 -1060 1447 -1209 2465 -23 162 -34 211 -62 298 -58 181 -175 310 -325 357 -29 9 -53 20 -53 24 0 4 15 10 33 13 51 9 148 60 196 102 95 83 135 176 176 414 134 774 427 1311 1155 2114 375 413 463 513 583 656 545 653 868 1272 1021 1955 87 386 100 862 35 1203 -61 318 -204 646 -369 847 l-33 40 7 -40z"/>
</g>
<g transform="translate(0.000000,1254.000000) scale(0.100000,-0.100000)" fill="#A9C86A" stroke="none">
<path d="M5029 11489 c106 -306 149 -631 130 -990 -30 -586 -197 -1122 -517 -1661 -233 -391 -455 -664 -1082 -1333 -510 -543 -682 -749 -885 -1058 -484 -738 -655 -1615 -490 -2512 109 -588 360 -1137 736 -1610 132 -166 407 -442 571 -573 724 -577 1642 -894 2663 -919 779 -19 1556 143 2185 456 409 204 711 420 1011 722 586 590 943 1352 1041 2219 19 169 16 572 -6 750 -49 412 -148 743 -331 1115 -108 218 -218 395 -380 610 -167 222 -326 403 -856 976 -548 590 -814 946 -1038 1389 -330 650 -463 1373 -365 1990 18 114 77 350 110 437 13 35 24 67 24 70 0 4 -32 -24 -71 -62 -343 -338 -560 -811 -623 -1355 -21 -178 -21 -526 0 -713 42 -385 151 -756 329 -1125 209 -431 441 -753 1085 -1507 772 -905 1049 -1400 1162 -2085 19 -116 22 -173 22 -410 0 -235 -3 -296 -22 -418 -66 -420 -214 -788 -439 -1090 -77 -103 -257 -287 -369 -378 -291 -234 -697 -435 -1128 -559 -284 -81 -577 -132 -901 -156 -200 -14 -643 -6 -820 16 -656 80 -1207 269 -1659 569 -494 329 -809 766 -952 1325 -165 642 -94 1313 202 1904 210 418 462 756 1169 1567 242 277 502 625 645 861 473 782 639 1713 448 2514 -96 405 -299 784 -553 1035 l-76 75 30 -86z"/>
</g>
<g transform="translate(0.000000,1254.000000) scale(0.100000,-0.100000)" fill="#6f9228" stroke="none">
<path d="M6450 6136 c0 -9 -213 -802 -380 -1416 -158 -581 -183 -673 -295 -1105 -168 -646 -245 -946 -245 -960 0 -11 42 -13 219 -12 121 1 223 6 227 10 10 10 137 498 499 1922 124 489 386 1498 401 1548 5 16 -10 17 -210 17 -119 0 -216 -2 -216 -4z"/>


<path d="M5180 5415 c-58 -34 -211 -126 -340 -205 -278 -169 -429 -261 -805 -487 l-280 -169 0 -229 0 -228 200 -125 c110 -68 322 -201 470 -295 412 -260 855 -537 860 -537 3 0 5 123 5 274 l0 274 -172 102 c-624 370 -878 523 -878 529 0 8 -47 -20 530 321 272 161 501 298 508 304 9 9 12 72 10 273 l-3 261 -105 -63z"/>
<path d="M7240 5213 l0 -268 323 -190 c557 -328 727 -429 727 -435 0 -5 -425 -260 -812 -486 l-238 -139 0 -279 0 -278 28 18 c15 10 347 215 737 457 391 241 727 450 748 463 l37 24 0 228 -1 227 -257 154 c-630 379 -859 516 -1037 621 -104 62 -205 121 -222 132 l-33 20 0 -269z"/>
</g>
</svg>