<svg xmlns="http://www.w3.org/2000/svg" version="1.0" preserveAspectRatio="xMidYMid meet" viewBox="720.7 562.5 3783.61 4124.5">

<!-- background -->
<rect
  x="720.7"
  y="562.5"
  width="3783.61"
  height="4124.5"
  fill="none"
/>
<!-- fill="#232323" -->

<!-- left curly bracket -->
<g transform="translate(0.000000,5225.000000) scale(0.100000,-0.100000)" fill="#98bf41" stroke="none">
<path d="M18350 46500 c22 -69 75 -226 118 -350 192 -547 333 -1064 447 -1634 115 -580 145 -959 145 -1846 0 -914 -29 -1267 -151 -1840 -318 -1490 -917 -2888 -1806 -4209 -673 -1001 -1273 -1680 -3097 -3506 -1319 -1320 -1654 -1663 -2067 -2110 -965 -1047 -1467 -1742 -1939 -2684 -488 -976 -741 -1757 -919 -2831 -53 -317 -80 -523 -136 -1025 -71 -644 -105 -803 -205 -978 -156 -273 -486 -605 -1160 -1169 -129 -108 -266 -225 -304 -261 l-69 -65 19 -32 c11 -18 82 -87 158 -154 1055 -918 1248 -1120 1380 -1437 76 -185 109 -370 151 -854 83 -964 191 -1694 366 -2483 433 -1954 1178 -3611 2299 -5107 290 -388 501 -627 950 -1076 588 -589 910 -858 1537 -1287 973 -664 1849 -1106 2953 -1489 1010 -350 2181 -618 3750 -858 995 -152 1318 -223 1880 -414 839 -284 1686 -743 2209 -1195 184 -160 265 -226 277 -226 50 0 -213 505 -439 845 -490 736 -1325 1476 -2072 1834 -172 83 -630 254 -1175 439 -1337 455 -2019 728 -2885 1157 -1334 661 -2387 1412 -3385 2414 -1369 1375 -2301 3001 -2854 4981 -267 958 -378 1576 -506 2827 -62 609 -97 800 -176 955 -100 198 -530 632 -912 921 -104 79 -232 193 -232 207 0 20 151 150 413 354 565 441 660 530 747 697 85 164 149 418 250 989 178 1015 314 1535 567 2175 373 942 776 1647 1423 2490 445 578 1027 1243 1940 2215 1143 1216 1643 1775 2131 2380 618 765 1108 1522 1560 2405 536 1049 869 2024 1049 3071 155 903 182 1932 74 2844 -197 1667 -838 3195 -1898 4520 -116 145 -322 390 -394 470 l-51 55 39 -125z"/>
</g>

<!-- right curly bracket -->
<g transform="translate(0.000000,5225.000000) scale(0.100000,-0.100000)" fill="#98bf41" stroke="none">
<path d="M33908 46550 c-94 -74 -514 -609 -776 -990 -711 -1034 -1161 -2105 -1412 -3360 -116 -581 -150 -973 -150 -1740 0 -730 34 -1138 141 -1718 267 -1447 797 -2774 1657 -4152 628 -1006 1251 -1763 2872 -3490 501 -534 580 -619 760 -815 1427 -1555 2165 -2591 2637 -3700 358 -842 591 -1714 743 -2785 87 -608 169 -802 462 -1085 112 -109 188 -172 628 -523 277 -222 285 -229 269 -249 -7 -8 -90 -72 -183 -143 -235 -175 -438 -351 -652 -565 -186 -185 -247 -263 -319 -405 -91 -181 -121 -341 -180 -960 -112 -1171 -277 -2087 -541 -3000 -495 -1709 -1263 -3118 -2399 -4400 -170 -191 -698 -719 -900 -900 -449 -402 -850 -712 -1355 -1049 -1145 -764 -2489 -1381 -4255 -1956 -866 -281 -1018 -337 -1280 -465 -336 -165 -830 -487 -1150 -748 -393 -321 -826 -839 -1142 -1367 -128 -213 -283 -530 -283 -579 0 -26 26 -8 198 141 197 169 297 245 542 408 686 458 1393 789 2115 990 415 116 833 196 1665 320 957 143 1618 270 2344 451 2741 685 4870 1972 6455 3904 1143 1393 1978 3122 2466 5105 240 978 337 1586 435 2735 32 372 57 571 89 705 44 183 121 346 239 505 98 132 433 454 925 889 263 233 475 427 470 431 -4 4 -163 139 -353 300 -420 357 -484 414 -723 650 -197 193 -315 323 -409 450 -159 214 -188 332 -248 1000 -85 958 -167 1512 -310 2095 -133 539 -295 996 -549 1543 -493 1060 -1024 1806 -2125 2982 -395 422 -712 746 -1481 1515 -1845 1845 -2307 2330 -2833 2972 -896 1096 -1733 2511 -2160 3653 -674 1802 -835 3533 -496 5330 119 633 247 1088 543 1930 28 80 51 148 51 153 0 13 -16 8 -42 -13z"/>
</g>

<!-- inner onion A9C86A -->
<g transform="translate(0.000000,5225.000000) scale(0.100000,-0.100000)" fill="#D6EDA6" stroke="none">
<path d="M21566 44272 c-3 -5 24 -71 60 -148 323 -684 632 -1615 779 -2349 190 -951 268 -2166 190 -2945 -79 -782 -285 -1681 -564 -2463 -525 -1468 -1300 -2821 -2420 -4222 -520 -651 -700 -851 -1872 -2085 -1228 -1294 -1784 -1916 -2274 -2545 -375 -482 -751 -1038 -1030 -1525 -1034 -1802 -1408 -3671 -1210 -6045 128 -1532 495 -2870 1160 -4232 648 -1328 1511 -2448 2623 -3402 1066 -916 2361 -1654 3832 -2184 342 -123 529 -183 1270 -406 366 -110 719 -218 785 -242 407 -143 902 -389 1319 -657 460 -295 818 -592 1173 -973 302 -326 446 -503 608 -749 56 -85 108 -161 117 -168 20 -16 35 2 210 268 75 113 164 241 199 285 465 590 1198 1207 1899 1597 454 253 791 384 1653 644 506 152 732 224 1027 325 723 250 1349 512 1928 806 1789 909 3277 2295 4303 4008 779 1300 1298 2763 1553 4378 101 636 129 1071 129 1987 1 738 -15 1024 -79 1470 -87 605 -205 1116 -383 1650 -268 803 -637 1537 -1202 2385 -627 942 -1157 1566 -2809 3310 -916 966 -1418 1531 -1902 2136 -736 921 -1291 1797 -1827 2879 -619 1249 -992 2505 -1130 3805 -55 509 -56 1064 -6 1630 72 797 251 1649 516 2455 93 280 176 503 311 835 133 323 190 474 186 487 -5 14 -218 -209 -372 -388 -1547 -1797 -2317 -3765 -2385 -6095 -67 -2263 653 -4542 2123 -6724 541 -803 960 -1320 2371 -2925 1723 -1961 2257 -2677 2774 -3720 476 -959 734 -1896 837 -3040 21 -234 30 -978 15 -1234 -50 -832 -181 -1561 -427 -2375 -188 -622 -460 -1218 -817 -1791 -250 -401 -576 -833 -914 -1207 -154 -171 -534 -547 -713 -705 -595 -525 -1261 -983 -1985 -1365 -568 -299 -1149 -538 -2100 -863 -487 -167 -988 -356 -1130 -427 -285 -143 -637 -376 -910 -602 -322 -267 -564 -520 -757 -794 -103 -146 -159 -217 -173 -217 -12 0 -112 121 -208 252 -304 416 -902 925 -1467 1249 -276 158 -501 248 -1260 504 -1034 348 -1720 636 -2375 995 -698 383 -1443 919 -2008 1444 -938 874 -1610 1866 -2066 3051 -222 579 -388 1195 -500 1855 -78 458 -86 601 -86 1525 0 946 8 1077 97 1505 222 1078 610 2054 1183 2970 427 685 885 1267 1974 2509 913 1042 1268 1449 1434 1644 1546 1815 2358 3157 2932 4847 261 769 414 1420 489 2090 80 701 80 1743 0 2535 -58 578 -206 1238 -414 1850 -434 1273 -1211 2560 -2118 3506 -110 115 -157 155 -166 141z"/>
</g>

<!-- '/' part of '</>' -->
<g transform="translate(0.000000,5225.000000) scale(0.100000,-0.100000)" fill="#98BF41" stroke="none">
<path d="M26446 25193 c-38 -131 -144 -525 -316 -1173 -293 -1110 -554 -2073 -926 -3425 -119 -429 -362 -1313 -540 -1965 -375 -1367 -516 -1870 -766 -2744 -153 -537 -178 -631 -166 -643 28 -27 192 -33 792 -31 l599 3 34 115 c19 63 78 273 133 465 96 342 153 548 555 2015 629 2291 1214 4393 1862 6690 192 682 199 708 192 714 -23 23 -154 28 -770 33 l-666 5 -17 -59z"/>
</g>

<!-- '<' part of '</>' -->
<g transform="translate(0.000000,5225.000000) scale(0.100000,-0.100000)" fill="#98BF41" stroke="none">
<path d="M21898 22971 c-1583 -1056 -2728 -1828 -2983 -2011 l-120 -86 2 -260 c2 -142 5 -447 9 -676 l6 -417 819 -548 c2955 -1977 3340 -2233 3363 -2233 39 0 40 28 44 795 l3 740 -563 385 c-310 211 -816 556 -1125 767 -1000 680 -1134 777 -1122 811 2 5 56 45 119 87 142 96 953 648 1590 1083 261 178 616 417 788 531 l312 206 -5 735 c-2 404 -7 754 -11 778 -4 25 -11 42 -19 42 -8 0 -506 -328 -1107 -729z"/>
</g>

<!-- '>' part of '</>' -->
<g transform="translate(0.000000,5225.000000) scale(0.100000,-0.100000)" fill="#98BF41" stroke="none">
<path d="M29145 23658 c-3 -24 -8 -374 -11 -779 l-6 -736 346 -234 c856 -579 1043 -706 1383 -940 754 -518 1045 -727 1041 -746 -12 -51 -677 -518 -1975 -1384 l-793 -529 0 -796 c0 -633 3 -794 13 -788 61 36 1094 721 2514 1668 l1713 1141 0 681 0 681 -1917 1280 c-1838 1226 -2285 1523 -2296 1523 -3 0 -8 -19 -12 -42z"/>
</g>
</svg>
